<?xml version="1.0" standalone="no"?>
<!DOCTYPE svg PUBLIC "-//W3C//DTD SVG 1.1//EN" "http://www.w3.org/Graphics/SVG/1.1/DTD/svg11.dtd" >
<svg xmlns="http://www.w3.org/2000/svg">
<metadata>Generated by IcoMoon</metadata>
<defs>
<font id="icons" horiz-adv-x="1024">
<font-face units-per-em="1024" ascent="960" descent="-64" />
<missing-glyph horiz-adv-x="1024" />
<glyph unicode="&#x20;" d="" horiz-adv-x="512" />
<glyph unicode="&#x2b;" d="M992 576h-352v352c0 17.672-14.328 32-32 32h-192c-17.672 0-32-14.328-32-32v-352h-352c-17.672 0-32-14.328-32-32v-192c0-17.672 14.328-32 32-32h352v-352c0-17.672 14.328-32 32-32h192c17.672 0 32 14.328 32 32v352h352c17.672 0 32 14.328 32 32v192c0 17.672-14.328 32-32 32z" />
<glyph unicode="&#x2d;" d="M0 544v-192c0-17.672 14.328-32 32-32h960c17.672 0 32 14.328 32 32v192c0 17.672-14.328 32-32 32h-960c-17.672 0-32-14.328-32-32z" />
<glyph unicode="&#x58;" d="M1014.662 137.34c-0.004 0.004-0.008 0.008-0.012 0.010l-310.644 310.65 310.644 310.65c0.004 0.004 0.008 0.006 0.012 0.010 3.344 3.346 5.762 7.254 7.312 11.416 4.246 11.376 1.824 24.682-7.324 33.83l-146.746 146.746c-9.148 9.146-22.45 11.566-33.828 7.32-4.16-1.55-8.070-3.968-11.418-7.31 0-0.004-0.004-0.006-0.008-0.010l-310.648-310.652-310.648 310.65c-0.004 0.004-0.006 0.006-0.010 0.010-3.346 3.342-7.254 5.76-11.414 7.31-11.38 4.248-24.682 1.826-33.83-7.32l-146.748-146.748c-9.148-9.148-11.568-22.452-7.322-33.828 1.552-4.16 3.97-8.072 7.312-11.416 0.004-0.002 0.006-0.006 0.010-0.010l310.65-310.648-310.65-310.652c-0.002-0.004-0.006-0.006-0.008-0.010-3.342-3.346-5.76-7.254-7.314-11.414-4.248-11.376-1.826-24.682 7.322-33.83l146.748-146.746c9.15-9.148 22.452-11.568 33.83-7.322 4.16 1.552 8.070 3.97 11.416 7.312 0.002 0.004 0.006 0.006 0.010 0.010l310.648 310.65 310.648-310.65c0.004-0.002 0.008-0.006 0.012-0.008 3.348-3.344 7.254-5.762 11.414-7.314 11.378-4.246 24.684-1.826 33.828 7.322l146.746 146.748c9.148 9.148 11.57 22.454 7.324 33.83-1.552 4.16-3.97 8.068-7.314 11.414z" />
<glyph unicode="&#x2197;" d="M957.133 825.088c-17.562-6.195-886.835-312.474-903.936-318.515-14.541-5.12-17.818-17.664-0.512-24.525 20.531-8.243 194.355-77.875 194.355-77.875h-0.051l115.251-46.182c0 0 554.854 407.501 562.381 412.979 7.526 5.53 16.282-4.864 10.803-10.803-5.478-5.99-402.995-435.917-402.995-435.917-0.051 0-0.051 0-0.051 0l-23.142-25.805 30.669-16.486c0 0 238.080-128.154 255.027-137.318 14.848-7.987 34.202-1.331 38.502 17.152 5.069 21.811 145.664 627.814 148.787 641.229 4.096 17.562-7.475 28.262-25.088 22.067zM361.216 81.306c0-12.646 7.117-16.128 16.947-7.219 12.8 11.674 145.869 131.072 145.869 131.072l-162.816 84.275v-208.128z" />
<glyph unicode="&#x21b3;" d="M768 151.040h-665.6v460.8h132.864c0 0 35.277 45.875 111.104 102.4h-295.168c-28.262 0-51.2-22.938-51.2-51.2v-563.2c0-28.314 22.938-51.2 51.2-51.2h768c28.314 0 51.2 22.886 51.2 51.2v191.795l-102.4-84.224v-56.371zM684.134 506.88v-181.76l339.866 266.291-339.866 255.949v-160.256c-412.774-0.051-412.774-408.064-412.774-408.064 116.838 191.898 188.723 227.84 412.774 227.84z" />
<glyph unicode="&#x233d;" d="M505.446 939.469c-271.462-3.635-488.55-226.611-484.915-498.022s226.611-488.55 498.074-484.915c271.411 3.584 488.55 226.611 484.915 498.074-3.635 271.411-226.714 488.499-498.074 484.864zM517.171 60.006c-214.323-2.918-390.349 168.499-393.216 382.822-2.867 214.323 168.55 390.349 382.874 393.216 214.272 2.867 390.298-168.55 393.165-382.822s-168.499-390.298-382.822-393.216zM391.731 364.698c-20.736 0-36.454 7.578-47.104 22.733-10.701 15.155-15.974 35.328-15.974 60.57 0 55.501 21.043 83.251 63.078 83.251 8.397 0 17.51-2.816 27.341-8.397 9.779-5.632 18.074-15.462 24.832-29.44l63.027 32.819c-25.19 45.414-67.021 68.147-125.338 68.147-39.834 0-72.704-13.158-98.816-39.526-26.061-26.368-39.117-62.003-39.117-106.854 0-45.978 12.902-81.92 38.707-107.725 25.754-25.805 59.75-38.707 101.786-38.707 26.317 0 50.432 6.605 72.294 19.814s39.014 31.283 51.354 54.323l-58.061 29.44c-11.213-26.931-30.566-40.448-58.010-40.448zM663.398 364.698c-20.787 0-36.506 7.578-47.104 22.733-10.701 15.104-15.974 35.328-15.974 60.57 0 55.501 20.992 83.251 63.078 83.251 9.011 0 18.381-2.816 28.211-8.397 9.779-5.632 18.125-15.462 24.781-29.44l62.208 32.819c-24.678 45.414-66.099 68.147-124.518 68.147-39.782 0-72.704-13.158-98.765-39.526-26.112-26.368-39.117-61.952-39.117-106.803 0-45.978 12.749-81.92 38.246-107.725 25.549-25.805 59.648-38.707 102.246-38.707 25.805 0 49.613 6.605 71.475 19.814 21.811 13.21 39.219 31.283 52.122 54.323l-58.88 29.44c-11.213-26.982-30.515-40.499-58.010-40.499z" />
<glyph unicode="&#x2343;" d="M512 878.080c-237.568 0-430.080-192.614-430.080-430.080 0-237.568 192.563-430.080 430.080-430.080 237.517 0 430.080 192.563 430.080 430.080 0 237.517-192.563 430.080-430.080 430.080zM770.56 500.326v-104.704h-517.12v104.704h517.12z" />
<glyph unicode="&#x2344;" d="M512 878.080c-237.568 0-430.080-192.614-430.080-430.080 0-237.568 192.563-430.080 430.080-430.080 237.517 0 430.080 192.563 430.080 430.080 0 237.517-192.563 430.080-430.080 430.080zM564.326 395.674v-206.182h-104.653v206.182h-206.234v104.653h206.182v206.234h104.704v-206.182h206.182v-104.704h-206.182z" />
<glyph unicode="&#x237e;" d="M0 403.59c0-46.398 4.339-88.381 13.022-125.934 8.678-37.554 20.696-70.184 36.051-97.891 15.357-27.709 34.885-52.078 58.586-73.109 23.701-21.032 49.406-38.224 77.112-51.576 27.707-13.35 59.336-24.198 94.89-32.546 35.55-8.347 71.856-14.189 108.909-17.528 37.054-3.338 77.781-5.006 122.178-5.006 44.733 0 85.629 1.669 122.68 5.006 37.054 3.339 73.443 9.184 109.16 17.528 35.718 8.344 67.514 19.192 95.389 32.546 27.877 13.354 53.746 30.544 77.616 51.576 23.87 21.030 43.566 45.403 59.086 73.109 15.52 27.702 27.622 60.334 36.301 97.891 8.682 37.555 13.021 79.536 13.021 125.934 0 82.787-27.707 154.394-83.118 214.816 3.005 8.011 5.758 17.107 8.262 27.29 2.504 10.182 4.84 24.702 7.010 43.563 2.17 18.862 1.336 40.643-2.504 65.347-3.837 24.704-10.931 49.906-21.283 75.611l-7.51 1.502c-5.342 1-14.106 0.75-26.29-0.752s-26.373-4.506-42.562-9.014c-16.19-4.506-37.054-13.186-62.592-26.038-25.539-12.851-52.494-28.957-80.87-48.318-48.736 13.352-115.669 20.029-200.792 20.029-84.792 0-151.557-6.677-200.294-20.029-28.376 19.362-55.501 35.467-81.37 48.318-25.87 12.853-46.485 21.533-61.84 26.038-15.354 4.509-29.71 7.429-43.062 8.765-13.354 1.336-21.784 1.752-25.288 1.251-3.504-0.499-6.261-1.086-8.262-1.752-10.347-25.706-17.442-50.906-21.28-75.611-3.837-24.704-4.674-46.486-2.504-65.347 2.17-18.859 4.509-33.381 7.011-43.563 2.504-10.182 5.258-19.278 8.261-27.29-55.414-60.422-83.122-132.026-83.122-214.816zM125.683 277.906c0 48.070 21.867 92.136 65.597 132.194 13.018 12.021 28.208 21.115 45.566 27.293 17.357 6.176 36.97 9.68 58.835 10.515 21.867 0.835 42.813 0.669 62.842-0.501 20.029-1.168 44.733-2.754 74.109-4.757 29.376-2.003 54.749-3.003 76.112-3.003 21.366 0 46.736 1 76.112 3.003 29.378 2.003 54.078 3.589 74.11 4.757 20.030 1.17 40.974 1.336 62.842 0.501 21.866-0.835 41.477-4.339 58.838-10.515 17.355-6.176 32.544-15.27 45.563-27.293 43.731-39.394 65.598-83.454 65.598-132.194 0-28.712-3.59-54.162-10.768-76.363-7.178-22.2-16.358-40.811-27.542-55.83-11.184-15.019-26.704-27.79-46.568-38.306-19.861-10.517-39.222-18.61-58.083-24.288-18.862-5.675-43.067-10.098-72.608-13.27-29.546-3.171-55.917-5.093-79.118-5.758-23.2-0.667-52.659-1.002-88.378-1.002-35.718 0-65.178 0.334-88.379 1.002-23.2 0.666-49.573 2.587-79.115 5.758-29.542 3.173-53.744 7.595-72.606 13.27-18.859 5.678-38.222 13.774-58.083 24.288-19.862 10.514-35.386 23.282-46.568 38.306-11.182 15.022-20.365 33.63-27.541 55.83-7.178 22.202-10.766 47.656-10.766 76.363zM640 288c0-53.019 28.654-96 64-96s64 42.981 64 96c0 53.019-28.654 96-64 96-35.346 0-64-42.981-64-96zM256 288c0-53.019 28.654-96 64-96s64 42.981 64 96c0 53.019-28.654 96-64 96-35.346 0-64-42.981-64-96z" />
<glyph unicode="&#x2388;" d="M320 768c0-106.039 85.961-192 192-192s192 85.961 192 192c0 106.039-85.961 192-192 192-106.039 0-192-85.961-192-192zM768.078 512h-35.426l-199.104-404.245 74.451 372.245-96 96-96-96 74.45-372.245-199.101 404.245h-35.424c-127.925 0-127.925-85.986-127.925-192v-320h768v320c0 106.014 0 192-127.922 192z" />
<glyph unicode="&#x23cd;" d="M842.011 370.52c-13.648 13.446-43.914 20.566-89.971 21.171-31.178 0.344-68.702-2.402-108.17-7.928-17.674 10.198-35.893 21.294-50.187 34.658-38.462 35.915-70.568 85.773-90.576 140.594 1.304 5.12 2.414 9.619 3.448 14.213 0 0 21.666 123.059 15.93 164.666-0.79 5.706-1.274 7.362-2.808 11.795l-1.882 4.834c-5.896 13.592-17.448 27.994-35.566 27.208l-10.915 0.344c-20.2 0-36.664-10.333-40.986-25.774-13.138-48.434 0.418-120.893 24.982-214.738l-6.288-15.286c-17.587-42.875-39.63-86.061-59.078-124.158l-2.528-4.952c-20.461-40.038-39.024-74.026-55.854-102.822l-17.376-9.189c-1.264-0.669-31.043-16.418-38.027-20.643-59.256-35.382-98.522-75.541-105.037-107.416-2.072-10.17-0.53-23.186 10.014-29.214l16.806-8.458c7.29-3.653 14.978-5.502 22.854-5.502 42.205 0 91.2 52.573 158.696 170.366 77.93 25.368 166.654 46.456 244.414 58.090 59.258-33.368 132.142-56.546 178.142-56.546 8.168 0 15.213 0.778 20.931 2.296 8.822 2.336 16.258 7.366 20.792 14.192 8.926 13.432 10.734 31.931 8.312 50.875-0.725 5.629-5.214 12.581-10.074 17.326zM211.646 145.952c7.696 21.042 38.16 62.643 83.203 99.555 2.832 2.296 9.808 8.832 16.194 14.902-47.101-75.123-78.645-105.066-99.397-114.458zM478.434 760.314c13.566 0 21.283-34.194 21.925-66.254 0.64-32.061-6.858-54.56-16.158-71.208-7.702 24.648-11.426 63.501-11.426 88.904 0 0-0.566 48.558 5.659 48.558zM398.851 322.506c9.45 16.915 19.282 34.757 29.33 53.678 24.493 46.317 39.958 82.555 51.478 112.346 22.91-41.683 51.445-77.12 84.986-105.512 4.184-3.542 8.618-7.102 13.274-10.65-68.208-13.496-127.163-29.91-179.067-49.862zM828.904 326.347c-4.154-2.598-16.054-4.101-23.707-4.101-24.706 0-55.272 11.294-98.126 29.666 16.469 1.218 31.562 1.838 45.101 1.838 24.782 0 32.12 0.109 56.35-6.072s24.536-18.733 20.382-21.331zM903.432 760.57l-142.864 142.862c-31.112 31.112-92.568 56.568-136.568 56.568h-480c-44 0-80-36-80-80v-864c0-44 36-80 80-80h736c44 0 80 36 80 80v608c0 44-25.456 105.458-56.568 136.57zM858.178 715.314c3.13-3.13 6.25-6.974 9.28-11.314h-163.458v163.456c4.339-3.030 8.184-6.15 11.314-9.28l142.864-142.862zM896 16c0-8.672-7.328-16-16-16h-736c-8.672 0-16 7.328-16 16v864c0 8.672 7.328 16 16 16h480c4.832 0 10.254-0.61 16-1.704v-254.296h254.296c1.094-5.746 1.704-11.166 1.704-16v-608z" />
<glyph unicode="&#x23e3;" d="M768 294.4c-35.226 0-67.482-11.93-93.389-31.846l-267.213 160.307c1.28 8.192 2.202 16.589 2.202 25.139 0 8.602-0.922 16.947-2.202 25.139l267.213 160.307c25.907-19.917 58.163-31.846 93.389-31.846 84.787 0 153.6 68.762 153.6 153.6s-68.813 153.6-153.6 153.6-153.6-68.762-153.6-153.6c0-8.55 0.922-16.947 2.253-25.139l-267.213-160.358c-25.907 19.968-58.214 31.898-93.44 31.898-84.838 0-153.6-68.762-153.6-153.6 0-84.787 68.762-153.6 153.6-153.6 35.226 0 67.533 11.93 93.44 31.846l267.213-160.307c-1.331-8.192-2.253-16.538-2.253-25.139 0-84.787 68.813-153.6 153.6-153.6s153.6 68.813 153.6 153.6-68.813 153.6-153.6 153.6z" />
<glyph unicode="&#x25a3;" d="M819.2 857.6h-410.624c-56.32 0-101.376-45.056-101.376-101.376v-410.624c0-56.32 46.080-102.4 102.4-102.4h409.6c56.32 0 102.4 46.080 102.4 102.4v409.6c0 56.32-46.080 102.4-102.4 102.4zM819.2 345.6h-409.6v409.6h409.6v-409.6zM204.8 448h-102.4v-307.2c0-56.32 46.080-102.4 102.4-102.4h307.2v102.4h-307.2v307.2z" />
<glyph unicode="&#x25ac;" d="M153.6 560.64c-62.208 0-112.64-50.432-112.64-112.64s50.432-112.64 112.64-112.64 112.64 50.432 112.64 112.64c0 62.208-50.432 112.64-112.64 112.64zM512 560.64c-62.208 0-112.64-50.432-112.64-112.64s50.432-112.64 112.64-112.64 112.589 50.432 112.589 112.64c0 62.208-50.381 112.64-112.589 112.64zM870.4 560.64c-62.208 0-112.64-50.432-112.64-112.64s50.432-112.64 112.64-112.64 112.64 50.432 112.64 112.64c0 62.208-50.432 112.64-112.64 112.64z" />
<glyph unicode="&#x25b2;" d="M891.802 222.771c13.875-13.722 36.301-13.722 50.125 0 13.875 13.722 13.875 35.891 0 49.613l-404.89 400.896c-13.824 13.722-36.25 13.722-50.074 0l-404.89-400.896c-13.824-13.722-13.875-35.891 0-49.613s36.25-13.722 50.125 0l379.802 365.619 379.802-365.619z" />
<glyph unicode="&#x25b3;" d="M792.73 374.426c-20.838 21.402-240.384 230.502-240.384 230.502-11.162 11.418-25.754 17.152-40.346 17.152-14.643 0-29.235-5.734-40.346-17.152 0 0-219.546-209.101-240.435-230.502-20.838-21.402-22.272-59.904 0-82.739 22.323-22.784 53.402-24.627 80.691 0l200.090 191.846 200.038-191.846c27.341-24.627 58.47-22.784 80.691 0 22.323 22.886 20.941 61.389 0 82.739z" />
<glyph unicode="&#x25b4;" d="M336.947 325.171c-13.875-13.722-36.25-13.722-50.125 0-13.824 13.722-13.875 35.891 0 49.664l200.090 195.994c13.875 13.722 36.301 13.722 50.125 0l200.090-196.045c13.875-13.773 13.875-35.942 0-49.664s-36.25-13.722-50.125 0l-175.053 160.819-175.002-160.768z" />
<glyph unicode="&#x25b6;" d="M286.704 68.198c-13.722-13.875-13.722-36.25 0-50.125s35.891-13.875 49.613 0l400.896 404.838c13.722 13.875 13.722 36.301 0 50.125l-400.896 404.89c-13.722 13.875-35.891 13.875-49.613 0s-13.722-36.25 0-50.125l365.568-379.802-365.568-379.802z" />
<glyph unicode="&#x25b7;" d="M438.426 728.781c21.402-20.89 230.502-240.435 230.502-240.435 11.469-11.162 17.152-25.754 17.152-40.346s-5.683-29.184-17.152-40.346c0 0-209.101-219.546-230.502-240.384-21.402-20.89-59.853-22.323-82.739 0-22.835 22.272-24.627 53.35 0 80.64l191.898 200.090-191.846 200.090c-24.627 27.341-22.835 58.419 0 80.691s61.338 20.89 82.688 0z" />
<glyph unicode="&#x25b8;" d="M389.171 272.998c-13.722-13.875-13.722-36.301 0-50.125 13.67-13.875 35.891-13.875 49.613 0l196.096 200.038c13.722 13.875 13.722 36.301 0 50.125l-196.096 200.090c-13.722 13.875-35.891 13.875-49.613 0s-13.722-36.25-0.051-50.074l160.819-175.053-160.768-175.002z" />
<glyph unicode="&#x25bc;" d="M132.198 673.229c-13.875 13.722-36.301 13.722-50.125 0-13.824-13.67-13.824-35.891 0-49.613l404.89-400.896c13.875-13.722 36.25-13.722 50.125 0l404.89 400.896c13.824 13.722 13.875 35.891 0 49.613s-36.352 13.722-50.125 0.051l-379.853-365.619-379.802 365.568z" />
<glyph unicode="&#x25bd;" d="M792.73 521.574c-20.838-21.402-240.384-230.554-240.384-230.554-11.162-11.418-25.754-17.101-40.346-17.101-14.643 0-29.235 5.683-40.346 17.101 0 0-219.546 209.152-240.435 230.554-20.838 21.402-22.272 59.853 0 82.739 22.323 22.835 53.402 24.627 80.691 0l200.090-191.898 200.038 191.846c27.341 24.627 58.47 22.835 80.691 0 22.323-22.835 20.941-61.338 0-82.688z" />
<glyph unicode="&#x25be;" d="M687.002 570.829c13.875 13.722 36.301 13.722 50.125 0 13.875-13.722 13.875-35.891 0-49.613l-200.038-196.096c-13.875-13.722-36.301-13.722-50.125 0l-200.090 196.096c-13.824 13.722-13.824 35.891 0 49.613 13.875 13.722 36.25 13.722 50.125 0l175.002-160.768 175.002 160.768z" />
<glyph unicode="&#x25c2;" d="M634.829 272.998c13.722-13.875 13.722-36.301 0-50.125-13.722-13.875-35.891-13.875-49.613 0l-196.096 200.038c-13.722 13.875-13.722 36.301 0 50.125l196.096 200.090c13.722 13.875 35.891 13.875 49.613 0s13.722-36.25 0-50.125l-160.768-175.002 160.768-175.002z" />
<glyph unicode="&#x25c3;" d="M585.574 728.781c-21.402-20.89-230.502-240.435-230.502-240.435-11.418-11.162-17.101-25.754-17.101-40.346s5.683-29.184 17.101-40.346c0 0 209.101-219.546 230.502-240.384 21.402-20.89 59.904-22.323 82.739 0 22.784 22.272 24.576 53.35-0.051 80.64l-191.846 200.090 191.846 200.090c24.627 27.341 22.835 58.419 0.051 80.691-22.886 22.272-61.389 20.89-82.739 0z" />
<glyph unicode="&#x25c4;" d="M737.229 68.198c13.722-13.875 13.722-36.25 0-50.125s-35.891-13.875-49.613 0l-400.896 404.838c-13.722 13.875-13.722 36.301 0 50.125l400.896 404.89c13.722 13.875 35.891 13.875 49.613 0s13.722-36.25 0-50.125l-365.568-379.802 365.568-379.802z" />
<glyph unicode="&#x260e;" d="M574.925 385.075c-81.050-81.101-174.95-158.618-212.070-121.446-53.146 53.094-85.862 99.379-203.008 5.274s-27.187-156.877 24.32-208.384c59.392-59.341 280.781-3.123 499.661 215.706 218.778 218.829 275.098 440.269 215.654 499.661-51.456 51.507-114.176 141.414-208.333 24.32s-47.872-149.862 5.274-203.008c37.018-37.171-40.448-131.021-121.498-212.122z" />
<glyph unicode="&#x2613;" d="M512 878.080c-237.568 0-430.080-192.614-430.080-430.080 0-237.568 192.563-430.080 430.080-430.080 237.517 0 430.080 192.563 430.080 430.080 0 237.517-192.563 430.080-430.080 430.080zM600.525 448l156.723-156.723-88.525-88.525-156.723 156.723-156.723-156.723-88.474 88.525 156.672 156.723-156.672 156.672 88.474 88.525 156.723-156.672 156.723 156.672 88.525-88.474-156.723-156.723z" />
<glyph unicode="&#x2622;" d="M575.87-64h-191.87v512h-128v176.45l128 0.058-0.208 103.952c0 143.952 39.034 231.54 208.598 231.54h141.176v-176.484h-88.23c-66.032 0-69.206-24.656-69.206-70.684l-0.262-88.324h158.69l-18.704-176.45-139.854-0.058-0.13-512z" />
<glyph unicode="&#x2639;" d="M832 832h-640c-105.6 0-192-86.4-192-192v-384c0-105.6 86.4-192 192-192h640c105.6 0 192 86.4 192 192v384c0 105.6-86.4 192-192 192zM960 256c0-33.978-13.374-66.062-37.654-90.346-24.283-24.28-56.366-37.654-90.346-37.654h-640c-33.978 0-66.062 13.374-90.344 37.654-24.282 24.283-37.656 56.368-37.656 90.346v384c0 33.978 13.374 66.062 37.656 90.344s56.366 37.656 90.344 37.656h640c33.978 0 66.062-13.374 90.346-37.656 24.283-24.282 37.654-56.366 37.654-90.344v-384zM384 192l320 256-320 256z" />
<glyph unicode="&#x2706;" d="M710.502 960h-397.005c-57.498 0-104.499-47.002-104.499-104.499v-815.002c0-57.446 47.002-104.499 104.499-104.499h397.005c57.498 0 104.499 47.053 104.499 104.499v815.002c0 57.498-47.002 104.499-104.499 104.499zM512-22.221c-40.346 0-73.114 23.398-73.114 52.275s32.768 52.275 73.114 52.275c40.397 0 73.114-23.398 73.114-52.275s-32.717-52.275-73.114-52.275zM731.392 134.554h-438.835v689.613h438.835v-689.613z" />
<glyph unicode="&#x2708;" d="M512 960c-176.733 0-320-143.269-320-320 0-320 320-704 320-704s320 384 320 704c0 176.731-143.27 320-320 320zM512 448c-106.040 0-192 85.96-192 192s85.96 192 192 192 192-85.96 192-192-85.96-192-192-192z" />
<glyph unicode="&#x2709;" d="M81.613 689.357c24.986-13.466 371.149-199.373 384.051-206.285 12.851-6.912 29.542-10.24 46.336-10.24 16.845 0 33.536 3.328 46.387 10.291 12.902 6.912 359.014 192.819 384 206.285 25.037 13.414 48.691 55.552 2.765 55.552h-866.253c-45.926 0-22.323-42.138 2.714-55.603zM952.986 586.957c-28.416-14.848-377.19-197.171-394.598-206.285s-29.542-10.291-46.387-10.291c-16.794 0-28.928 1.178-46.336 10.291s-366.234 191.488-394.598 206.285c-20.019 10.445-19.866-1.792-19.866-11.213 0-9.421 0-375.552 0-375.552 0-21.504 28.621-49.152 50.79-49.152h820.070c22.221 0 50.739 27.648 50.739 49.101 0 0 0 366.131 0 375.552 0 9.472 0.205 21.709-19.814 11.264z" />
<glyph unicode="&#x270e;" d="M1024 765.582c-37.675-16.707-78.163-28.002-120.659-33.080 43.373 26 76.686 67.17 92.373 116.23-40.595-24.078-85.555-41.56-133.41-50.979-38.32 40.83-92.922 66.341-153.346 66.341-116.022 0-210.088-94.058-210.088-210.078 0-16.466 1.858-32.501 5.44-47.878-174.6 8.763-329.402 92.4-433.018 219.506-18.085-31.027-28.446-67.115-28.446-105.618 0-72.888 37.088-137.192 93.459-174.866-34.438 1.093-66.832 10.542-95.154 26.278-0.021-0.875-0.021-1.755-0.021-2.642 0-101.787 72.418-186.696 168.522-206-17.626-4.8-36.187-7.371-55.349-7.371-13.538 0-26.698 1.32-39.528 3.771 26.736-83.459 104.32-144.206 196.251-145.896-71.901-56.35-162.486-89.934-260.915-89.934-16.958 0-33.68 0.994-50.115 2.939 92.971-59.61 203.402-94.394 322.042-94.394 386.422 0 597.736 320.125 597.736 597.744 0 9.109-0.206 18.168-0.61 27.181 41.056 29.618 76.672 66.618 104.835 108.746z" />
<glyph unicode="&#x2715;" d="M819.2 857.6h-614.4c-56.32 0-102.4-46.080-102.4-102.4v-614.4c0-56.32 46.080-102.4 102.4-102.4h614.4c56.32 0 102.4 46.080 102.4 102.4v614.4c0 56.32-46.080 102.4-102.4 102.4zM668.723 202.803l-156.723 156.672-156.723-156.723-88.474 88.525 156.672 156.723-156.672 156.672 88.474 88.525 156.723-156.672 156.672 156.672 88.525-88.474-156.672-156.723 156.723-156.723-88.525-88.474z" />
<glyph unicode="&#x271b;" d="M559.066 896c0 0-200.955 0-267.941 0-120.118 0-233.168-91.006-233.168-196.422 0-107.726 81.882-194.666 204.088-194.666 8.498 0 16.757 0.17 24.842 0.752-7.93-15.186-13.602-32.288-13.602-50.042 0-29.938 16.104-54.21 36.469-74.024-15.386 0-30.242-0.448-46.451-0.448-148.784 0.002-263.302-94.758-263.302-193.021 0-96.778 125.542-157.314 274.334-157.314 169.624 0 263.306 96.245 263.306 193.027 0 77.6-22.896 124.072-93.686 174.134-24.216 17.144-70.53 58.837-70.53 83.344 0 28.72 8.195 42.869 51.427 76.646 44.312 34.624 75.672 83.302 75.672 139.915 0 67.406-30.019 133.098-86.373 154.771h84.954l59.962 43.346zM465.48 240.542c2.126-8.971 3.283-18.206 3.283-27.627 0-78.2-50.392-139.31-194.974-139.31-102.842 0-177.117 65.104-177.117 143.301 0 76.642 92.126 140.443 194.963 139.331 24-0.254 46.368-4.115 66.67-10.69 55.829-38.827 95.878-60.763 107.174-105.005zM300.818 532.224c-69.038 2.064-134.635 77.226-146.552 167.861-11.915 90.666 34.37 160.042 103.389 157.99 69.010-2.074 134.638-74.814 146.558-165.458 11.906-90.661-34.39-162.459-103.395-160.394zM832 704v192h-64v-192h-192v-64h192v-192h64v192h192v64z" />
<glyph unicode="&#x2727;" d="M955.955 343.654c6.81 31.949 10.394 65.126 10.394 99.226 0 255.283-201.165 462.285-449.331 462.285-26.163 0-51.866-2.355-76.8-6.758-40.243 26.010-87.706 41.114-138.701 41.114-143.872 0-260.557-120.064-260.557-268.134 0-49.459 13.107-95.795 35.84-135.578-5.939-30.003-9.114-61.082-9.114-92.928 0-255.283 201.216-462.285 449.331-462.285 28.109 0 55.654 2.662 82.278 7.731 36.659-20.275 78.592-31.795 123.136-31.795 143.974 0 260.608 120.013 260.608 268.083 0 42.752-9.779 83.2-27.085 119.040zM747.469 221.901c-20.787-30.259-51.507-54.272-91.29-71.27-39.424-16.845-86.579-25.395-140.39-25.395-64.563 0-118.63 11.674-160.87 34.765-30.208 16.742-55.091 39.475-73.984 67.482-19.098 28.365-28.774 56.474-28.774 83.558 0 16.947 6.298 31.642 18.739 43.674 12.339 11.878 28.109 17.971 46.899 17.971 15.411 0 28.774-4.762 39.578-14.131 10.342-9.062 19.2-22.426 26.317-39.578 7.987-18.79 16.64-34.611 25.805-47.104 8.806-11.981 21.504-22.118 37.683-30.003 16.282-7.885 38.246-11.93 65.28-11.93 37.12 0 67.584 8.141 90.47 24.269 22.426 15.77 33.28 34.611 33.28 57.702 0 18.227-5.683 32.614-17.357 43.827-12.237 11.725-28.416 20.89-47.974 27.187-20.429 6.554-48.179 13.619-82.432 20.992-46.643 10.291-86.272 22.477-117.76 36.25-32.154 14.029-58.163 33.587-77.158 58.061-19.302 24.781-29.082 56.013-29.082 92.672 0 34.918 10.24 66.406 30.515 93.542 20.122 26.931 49.408 47.923 87.194 62.31 37.325 14.182 81.715 21.402 131.891 21.402 40.141 0 75.418-4.813 104.858-14.182 29.594-9.523 54.579-22.323 74.189-38.093 19.763-15.923 34.458-32.922 43.725-50.483 9.318-17.869 14.029-35.584 14.029-52.736 0-16.538-6.195-31.539-18.432-44.646-12.288-13.158-27.853-19.814-46.131-19.814-16.589 0-29.645 4.198-38.707 12.39-8.397 7.629-17.152 19.61-26.778 36.71-11.213 21.965-24.781 39.219-40.294 51.354-15.155 11.827-40.346 17.869-75.059 17.869-32.205 0-58.419-6.656-77.875-19.814-18.79-12.698-27.853-27.187-27.853-44.339 0-10.547 2.918-19.354 8.96-26.88 6.4-8.038 15.36-15.104 26.778-20.941 11.776-6.093 23.962-10.957 36.147-14.438 12.493-3.533 33.434-8.806 62.208-15.667 36.352-8.038 69.734-17.050 99.277-26.726 29.952-9.83 55.808-22.016 76.902-36.096 21.504-14.438 38.554-32.973 50.637-55.040 12.083-22.221 18.227-49.613 18.227-81.408 0.051-38.195-10.496-72.858-31.386-103.27z" />
<glyph unicode="&#x2732;" d="M259.891 803.84c0-54.426-40.192-98.509-106.291-98.509-62.208 0-102.4 44.083-102.4 98.509 0 55.706 41.523 98.509 105.011 98.509s102.4-42.803 103.68-98.509zM56.422-6.349v633.856h197.018v-633.856h-197.018zM371.354 425.318c0 79.053-2.611 145.152-5.222 202.189h171.11l9.114-88.166h3.891c25.907 41.523 89.446 102.4 195.738 102.4 129.587 0 226.816-86.835 226.816-273.51v-374.63h-197.018v351.283c0 81.664-28.57 137.421-99.84 137.421-54.426 0-86.784-37.581-101.069-73.882-5.222-12.954-6.502-31.078-6.502-49.254v-365.568h-197.018v431.718z" />
<glyph unicode="&#x2795;" d="M819.2 857.6h-614.4c-56.32 0-102.4-46.080-102.4-102.4v-614.4c0-56.32 46.080-102.4 102.4-102.4h614.4c56.32 0 102.4 46.080 102.4 102.4v614.4c0 56.32-46.080 102.4-102.4 102.4zM768 396.8h-204.8v-204.8h-102.4v204.8h-204.8v102.4h204.8v204.8h102.4v-204.8h204.8v-102.4z" />
<glyph unicode="&#x2796;" d="M819.2 857.6h-614.4c-56.32 0-102.4-46.080-102.4-102.4v-614.4c0-56.32 46.080-102.4 102.4-102.4h614.4c56.32 0 102.4 46.080 102.4 102.4v614.4c0 56.32-46.080 102.4-102.4 102.4zM768 396.8h-512v102.4h512v-102.4z" />
<glyph unicode="&#x27f3;" d="M320 320v192h192l-256 256-256-256h192v-320h384l-128 128zM832 384v320h-384l128-128h128v-192h-192l256-256 256 256z" />
<glyph unicode="&#x2b23;" d="M819.2 806.4h-614.4c-56.32 0-102.4-46.080-102.4-102.4v-358.4c0-56.32 46.080-102.4 102.4-102.4h204.8l204.8-153.6v153.6h204.8c56.32 0 102.4 46.080 102.4 102.4v358.4c0 56.32-46.080 102.4-102.4 102.4z" />
<glyph unicode="&#xe600;" d="M2411.048 452.307c6.476-17.888 15.809-33.392 28.19-46.51 12.381-13.117 27.619-23.652 45.904-31.403 18.286-7.951 39.047-11.727 62.666-11.727 23.429 0 44.19 3.777 62.476 11.727 18.286 7.751 33.524 18.286 45.904 31.403 12.382 13.118 21.715 28.622 28.19 46.51 6.477 17.888 9.715 36.77 9.715 56.645 0 19.875-3.238 38.558-9.715 56.248-6.476 17.491-15.809 32.995-28.19 46.509-12.381 13.317-27.619 23.852-45.904 31.801-18.286 7.752-39.047 11.727-62.476 11.727-23.619 0-44.381-3.975-62.666-11.727-18.286-7.949-33.524-18.484-45.904-31.801-12.382-13.514-21.715-29.018-28.19-46.509-6.477-17.69-9.524-36.373-9.524-56.248 0-19.875 3.048-38.757 9.524-56.645zM2639.421 591.604l-176.396-172.556c-1.97 1.859-3.867 3.82-5.692 5.831-10.285 11.329-18.094 24.248-23.428 38.757-5.333 14.31-8.001 29.417-8.001 45.317 0 15.701 2.667 30.808 8.001 45.317 5.333 14.31 13.143 27.23 23.428 38.558 10.286 11.33 22.857 20.274 38.095 27.031 15.238 6.56 32.572 9.938 52.381 9.938 19.619 0 36.953-3.378 52.19-9.938 15.239-6.757 28-15.701 38.287-27.031l1.135-1.224zM2154.742 507.069l309.526 446.836h-125.328l-302.201-440.949v440.949h-110.414v-1010.371h110.414v387.718l51.544 80.616 316.854-468.334h129.776l-380.171 563.535zM1475.969 676.129c0 45.861 11.475 82.999 34.425 111.662 22.951 28.414 48.196 46.609 75.48 54.585 27.286 7.975 60.946 11.964 101.236 11.964 40.29 0 86.189-9.472 137.955-27.916l30.090 80.009c-62.22 30.907-130.305 46.36-203.999 46.36-59.416 0-110.67-11.715-153.511-35.144-42.329-25.423-73.695-56.33-94.095-92.72-20.656-36.391-30.855-90.228-30.855-161.264v-450.638c0-59.071 10.711-108.423 32.13-148.302 21.42-39.88 49.725-68.792 84.659-86.988 34.935-18.444 68.086-28.663 99.195-31.655 31.11-2.492 54.316-3.988 69.615-3.988 73.695 0 151.216 15.454 232.815 46.36l-20.145 89.729c-75.735-25.423-141.779-37.886-198.134-37.886-131.326 0-196.86 58.323-196.86 175.47v460.36zM957.156 676.129c0 45.861 11.475 82.999 34.425 111.662 22.95 28.414 48.195 46.609 75.48 54.585 27.285 7.975 60.945 11.964 101.235 11.964 40.291 0 86.19-9.472 137.955-27.916l30.091 80.009c-62.22 30.907-130.305 46.36-204 46.36-59.415 0-110.67-11.715-153.51-35.144-42.33-25.423-73.695-56.33-94.095-92.72-20.656-36.391-30.855-90.228-30.855-161.264v-450.638c0-59.071 10.709-108.423 32.129-148.302 21.421-39.88 49.726-68.792 84.66-86.988 34.935-18.444 68.085-28.663 99.195-31.655 31.11-2.492 54.315-3.988 69.615-3.988 73.695 0 151.216 15.454 232.815 46.36l-20.145 89.729c-75.735-25.423-141.78-37.886-198.135-37.886-131.324 0-196.859 58.323-196.859 175.47v460.36zM789.908 952.369h-105.966l-290.427-819.966-287.287 819.966h-106.228v-1008.835h106.228v699.173l237.313-699.173h100.211l240.19 699.173v-699.173h105.966v1008.835zM4713.84 334.351c20.161-18.247 47.629-27.371 82.154-27.371 33.769 0 61.238 9.125 81.903 27.893 20.664 18.768 31.248 48.226 31.248 88.892v87.328c0 3.128-1.008 6.256-2.772 8.864-1.764 2.606-4.033 3.909-6.552 3.909h-78.625c-2.772 0-5.041-1.825-6.552-5.214-1.513-3.388-2.267-7.298-2.267-11.47 0-4.431 0.502-8.341 2.015-11.73 1.512-3.389 3.276-4.953 5.544-4.953h56.954v-68.037c0-27.371-7.057-47.965-21.169-61.52-14.113-13.817-34.021-20.593-59.726-20.593-53.678 0-80.39 27.892-80.39 84.198v165.271c0 56.047 26.712 84.2 80.39 84.2 47.882 0 74.846-19.029 80.895-57.088 0.503-6.517 5.795-9.645 16.127-9.645 10.586 0 16.129 4.431 16.129 13.294 0 25.287-10.331 46.141-30.744 62.303-20.665 16.162-48.134 24.504-82.91 24.504-34.021 0-61.239-9.125-81.651-27.371-20.413-18.248-30.493-47.183-30.493-86.807v-172.048c0-39.624 10.080-68.559 30.493-86.807v0zM4464.691 306.979c10.585 0 16.129 3.911 16.129 11.992v323.764l143.644-315.422c6.552-13.556 12.348-20.334 17.641-20.334 10.584 0 16.128 3.911 16.128 11.992v376.943c0 7.559-5.544 11.47-16.128 11.47-10.836 0-16.129-3.911-16.129-11.47v-323.764l-141.124 312.816c-7.308 14.858-14.112 22.418-20.161 22.418-10.836 0-16.128-3.911-16.128-11.47v-376.943c0-8.081 5.292-11.992 16.128-11.992v0zM4406.706 306.979c10.585 0 16.128 3.911 16.128 11.992v376.943c0 7.559-5.543 11.47-16.128 11.47-10.836 0-16.128-3.911-16.128-11.47v-376.943c0-8.081 5.292-11.992 16.128-11.992v0zM4179.722 674.016h72.074v-355.306c0-7.82 5.292-11.731 16.128-11.731 10.585 0 16.129 3.911 16.129 11.731v355.306h71.821c5.797 0 8.821 5.736 8.821 17.467 0 10.427-3.276 15.901-9.324 15.901h-174.893c-2.772 0-5.041-1.825-6.805-4.953s-2.52-7.039-2.52-11.731c0-4.692 0.756-8.862 2.52-11.992 1.513-3.128 3.529-4.692 6.049-4.692v0zM4059.756 306.979h156.496c6.049 0 9.326 5.475 9.326 16.684 0 10.948-3.024 16.684-8.821 16.684h-136.336v355.828c0 7.298-5.544 11.209-16.129 11.209-10.836 0-16.128-3.911-16.128-11.47v-376.943c0-8.081 3.78-11.992 11.592-11.992v0zM3831.947 334.351c21.168-18.247 48.133-27.371 80.641-27.371 32.257 0 59.223 9.125 80.894 27.371 21.421 18.248 32.258 47.183 32.258 86.807v274.756c0 7.559-5.544 11.47-16.129 11.47-10.836 0-16.129-3.911-16.129-11.209v-269.544c0-28.674-7.055-50.311-21.168-64.649-14.112-14.598-34.021-21.636-59.726-21.636-25.705 0-45.613 7.038-59.474 21.636-14.113 14.337-20.916 35.974-20.916 64.649v269.544c0 7.298-5.544 11.209-16.128 11.209-10.837 0-16.129-3.911-16.129-11.47v-274.756c0-39.624 10.585-68.559 32.006-86.807v0zM3586.216 329.137c20.159-14.858 46.117-22.157 77.366-22.157 33.516 0 60.229 9.385 80.39 28.154 20.161 18.768 30.241 47.444 30.241 85.764 0 19.812-3.528 36.495-10.331 50.572-6.805 14.076-15.625 24.764-26.21 32.584-10.836 7.561-22.933 14.078-36.037 19.291-13.104 5.213-25.705 9.905-37.8 14.076-12.097 4.17-23.185 8.602-33.264 13.815-10.082 5.214-18.147 12.512-24.446 22.159-6.3 9.384-9.324 21.375-9.324 35.712 0 23.462 7.308 40.146 22.429 50.050 14.868 9.906 45.188 20.78 61.155 19.703l31.037-0.942 45.007-5.046 1.651 2.22c5.369 10.091-3.093-2.606-0.068 0 3.024 2.608 4.61 7.787 4.61 10.133 2.684 12.673-1.17 13.547-0.619 14.086-19.268 4.306-65.407 8.073-86.828 8.073-13.607 0-26.208-1.564-37.801-4.432-11.592-2.867-23.185-7.82-34.776-14.597-11.593-7.039-20.918-17.467-27.721-31.282-7.057-13.817-10.333-30.499-10.333-50.050 0-20.334 4.536-37.016 14.113-50.050 9.323-13.034 20.916-22.418 35.029-28.154 13.859-5.734 28.225-11.731 43.092-17.465 14.616-5.995 28.226-11.731 40.826-17.204 12.6-5.736 22.933-14.859 31.5-27.632 8.569-12.774 12.854-28.937 12.854-48.227 0-25.546-7.057-45.097-20.918-58.132-14.113-13.294-34.021-19.811-59.978-19.811-15.12 0-28.223 2.085-39.564 6.777-11.593 4.432-19.657 9.385-24.697 15.12l-17.388 14.859c-5.292 4.431-9.072 6.778-11.593 6.778-2.771 0-5.544-1.564-8.064-4.692-2.52-3.128-3.78-6.257-3.78-9.645 0-11.992 10.080-25.548 30.242-40.407v0zM3345.918 306.979c10.584 0 16.129 3.911 16.129 11.992v323.764l143.644-315.422c6.551-13.556 12.349-20.334 17.641-20.334 10.584 0 16.128 3.911 16.128 11.992v376.943c0 7.559-5.544 11.47-16.128 11.47-10.836 0-16.128-3.911-16.128-11.47v-323.764l-141.124 312.816c-7.309 14.858-14.113 22.418-20.162 22.418-10.836 0-16.128-3.911-16.128-11.47v-376.943c0-8.081 5.292-11.992 16.128-11.992v0zM3109.075 589.817c0 56.047 26.712 84.2 80.389 84.2 25.706 0 45.616-7.038 59.727-21.115 14.112-14.076 21.168-35.191 21.168-63.084v-165.271c0-28.153-7.056-49.007-21.168-63.084-14.112-14.076-34.021-21.114-59.727-21.114-53.677 0-80.389 27.892-80.389 84.198v165.271zM3107.311 334.351c20.161-18.247 47.628-27.371 82.153-27.371 33.77 0 61.239 9.125 81.903 27.371 20.665 18.248 31.25 47.183 31.25 86.807v172.048c0 39.624-10.585 68.559-31.25 86.807-20.664 18.247-48.133 27.371-81.903 27.371-34.525 0-61.992-9.125-82.153-27.371-20.413-18.248-30.493-47.183-30.493-86.807v-172.048c0-39.624 10.080-68.559 30.493-86.807v0zM2856.933 334.612c20.664-18.508 47.882-27.632 81.651-27.632 34.777 0 62.246 8.081 82.658 24.504 20.162 16.162 30.493 35.713 30.493 58.132 0 6.778-1.512 11.47-4.031 13.817-2.521 2.345-6.805 3.649-12.852 3.649-9.577 0-14.618-3.128-15.373-9.384-1.007-6.517-2.267-11.47-3.276-15.119-1.008-3.65-3.276-8.342-6.552-14.598-3.528-6.257-7.812-10.949-12.852-14.338-5.040-3.649-12.348-6.777-21.672-9.384-9.577-2.606-20.665-3.909-33.265-3.909-55.946 0-83.667 27.892-83.667 84.198v165.271c0 56.047 27.218 84.2 81.903 84.2 15.625 0 28.729-2.085 39.818-5.734 11.087-3.911 19.152-9.125 24.192-15.381 5.041-6.517 8.821-12.512 11.341-18.247 2.267-5.736 3.528-11.47 4.031-17.726 0-6.517 5.293-9.645 16.129-9.645 5.544 0 9.576 1.042 12.097 3.649 2.52 2.347 4.031 6.778 4.031 13.295 0 22.94-10.080 42.491-29.989 58.653-20.161 16.162-47.377 24.504-81.651 24.504-34.021 0-61.49-9.384-82.659-27.893-21.169-18.508-31.5-47.183-31.5-86.285v-172.048c0-39.102 10.331-68.037 30.997-86.546v0zM6064.244 674.060h72.522c23.168 0 41.048-7.55 53.638-22.129 12.59-14.839 18.887-36.968 18.887-66.126v-5.988c0-29.94-6.296-52.329-18.887-66.907-12.59-14.839-30.47-22.129-53.638-22.129h-72.522v183.28zM6048.127 307.5c10.576 0 16.117 3.645 16.117 10.935v139.021h76.048c30.219 0 54.645 9.894 73.279 29.679 18.636 19.786 27.953 50.506 27.953 92.421v6.249c0 41.915-9.57 72.635-28.707 92.16-19.139 19.525-44.321 29.419-75.547 29.419h-93.424c-8.058-0.781-11.836-4.686-11.836-11.455v-376.453c0-8.070 5.288-11.976 16.117-11.976v0zM5813.055 334.836c21.153-18.224 48.098-27.336 80.583-27.336 32.232 0 59.176 9.112 80.834 27.336 21.404 18.225 32.232 47.122 32.232 86.694v274.399c0 7.55-5.539 11.455-16.116 11.455-10.829 0-16.116-3.906-16.116-11.195v-269.193c0-28.638-7.051-50.247-21.154-64.564-14.101-14.58-33.994-21.609-59.68-21.609-25.687 0-45.579 7.029-59.43 21.609-14.102 14.318-20.901 35.927-20.901 64.564v269.193c0 7.289-5.541 11.195-16.117 11.195-10.828 0-16.116-3.906-16.116-11.455v-274.399c0-39.572 10.575-68.469 31.98-86.694v0zM5561.971 589.97c0 55.973 26.695 84.090 80.332 84.090 25.684 0 45.579-7.029 59.681-21.087 14.102-14.059 21.153-35.146 21.153-63.003v-165.057c0-28.116-7.051-48.944-21.153-63.002-14.102-14.059-33.997-21.088-59.681-21.088-53.637 0-80.332 27.856-80.332 84.090v165.057zM5560.209 334.836c20.145-18.224 47.594-27.336 82.093-27.336 33.743 0 61.191 9.112 81.841 27.336 20.648 18.225 31.226 47.122 31.226 86.694v171.825c0 39.572-10.578 68.47-31.226 86.694-20.649 18.224-48.098 27.336-81.841 27.336-34.499 0-61.948-9.112-82.093-27.336-20.397-18.224-30.471-47.122-30.471-86.694v-171.825c0-39.572 10.074-68.469 30.471-86.694v0zM5325.143 674.060h68.244c51.118 0 76.805-24.993 76.805-74.457 0-50.506-25.687-75.499-76.805-75.499h-68.244v149.956zM5309.027 307.5c10.576 0 16.116 3.906 16.116 11.716v171.564h66.228l76.554-165.055c6.044-12.496 11.836-18.745 17.123-18.745 5.036 0 9.317 1.302 12.592 3.906 3.022 2.603 4.785 5.988 4.785 9.632 0 2.083-0.503 4.165-1.512 6.508l-84.61 167.4c57.415 8.331 86.122 43.737 86.122 105.699 0 38.010-10.325 65.345-30.471 82.007-20.145 16.662-46.585 25.254-79.071 25.254h-88.639c-3.525 0-6.295-1.302-8.31-3.385-2.014-2.082-3.021-4.946-3.021-8.070v-376.453c0-8.070 5.287-11.976 16.116-11.976v0zM5072.867 334.836c20.146-18.224 47.594-27.336 82.093-27.336 33.744 0 61.193 9.112 81.841 27.856 20.649 18.745 31.226 48.163 31.226 88.777v87.213c0 3.124-1.007 6.249-2.77 8.853-1.763 2.603-4.029 3.905-6.548 3.905h-78.568c-2.77 0-5.036-1.822-6.546-5.207-1.512-3.385-2.267-7.29-2.267-11.455 0-4.426 0.503-8.331 2.015-11.715 1.51-3.384 3.273-4.947 5.539-4.947h56.911v-67.948c0-27.336-7.051-47.902-21.153-61.44-14.102-13.798-33.996-20.568-59.681-20.568-53.637 0-80.329 27.856-80.329 84.090v165.057c0 55.973 26.692 84.090 80.329 84.090 47.844 0 74.79-19.005 80.834-57.015 0.503-6.508 5.792-9.632 16.117-9.632 10.575 0 16.116 4.425 16.116 13.277 0 25.253-10.325 46.080-30.721 62.221-20.651 16.141-48.098 24.472-82.849 24.472-33.996 0-61.193-9.112-81.59-27.336-20.397-18.224-30.47-47.122-30.47-86.694v-171.825c0-39.572 10.073-68.469 30.47-86.694v0z" horiz-adv-x="6242" />
<glyph unicode="&#xe601;" d="M398.272 775.36l159.017 183.642 159.017-183.642zM716.307 120.64l-159.017-183.642-159.017 183.642zM368.281 544.842c0 47.158-4.721 83.229-14.017 108.071s-29.215 46.315-59.905 64.421c-30.689 17.965-69.2 27.087-115.53 27.087-47.216 0-85.726-10.245-115.383-30.737-29.805-20.491-47.806-43.088-54.003-67.649-6.344-24.702-9.443-64.141-9.443-118.456v-168.982c0-39.158 1.476-68.491 4.427-88.14 2.951-19.649 10.328-38.316 22.28-56 11.804-17.825 29.215-32.702 52.084-44.772 22.87-12.070 47.511-18.105 73.775-18.105 21.985 0 41.166 3.93 57.396 11.789 16.23 7.86 29.657 20.632 40.281 38.456l15.197-41.263h102.841v305.404h-188.862v-89.825h28.329v-63.017c0-24.843-1.77-41.544-5.311-49.965-3.542-8.562-10.033-12.772-19.772-12.772-8.852 0-14.755 3.93-17.705 11.93-2.951 8-4.427 24.562-4.427 49.825v269.614c0 28.632 1.623 46.456 4.869 53.473 3.245 6.878 9.295 10.386 18.443 10.386 10.329 0 16.969-4.211 19.772-12.351 2.655-8.281 4.131-28.772 4.131-61.474v-51.929h160.533v24.982zM999.18 744.421v-266.895l-95.734 266.895h-148.919v-592.842h159.557v269.5l85.096-269.5h159.557v592.842h-159.557zM1527.018 151.579h168.776v268.631c26.991 0 43.59-3.907 49.95-11.434 6.36-7.671 9.618-27.355 9.618-59.197v-198h148.919v157.039c0 48.053-1.396 77.434-4.189 88.145-2.792 10.711-9.773 22.435-20.942 35.171-11.324 12.737-33.352 22.868-65.928 30.539 35.988 3.184 60.188 12.593 72.598 28.368 12.255 15.777 18.46 46.605 18.46 92.632 0 50.224-8.997 86.842-26.681 109.711-17.839 22.868-40.797 37.197-69.030 42.842-28.233 5.5-82.216 8.395-161.95 8.395h-119.601v-592.842zM1742.486 633.843c8.532-5.79 12.875-17.803 12.875-36.33v-32.131c0-25.763-4.499-40.961-13.341-45.592-8.842-4.631-24.2-6.948-46.227-6.948v129.684c22.648 0 38.16-2.894 46.693-8.683v0zM1904.281 205.474l-14.596-7.86 41.544-46.035h-0.167c-12.822 13.266-27.262 38.382-21.166 57.263zM1895.298 205.474l-31.439-16.281 39.86-37.614h26.947c-18.359 14.035-28.632 46.035-26.386 86.456zM1886.316 205.474h8.421l18.526-53.895h-0.167c-12.822 13.266-27.262 38.382-21.166 57.263zM404.211 744.421h161.684v-592.842h-161.684v592.842zM1185.684 744.421h161.684v-592.842h-161.684v592.842zM431.158 744.421h287.439v-89.825h-287.439v89.825zM1212.632 744.421h287.439v-89.825h-287.439v89.825zM431.158 528.842h287.439v-89.825h-287.439v89.825zM1212.632 528.842h287.439v-89.825h-287.439v89.825zM440.14 259.368h287.439v-107.789h-287.439v107.789zM1221.614 259.368h287.439v-107.789h-287.439v107.789zM2040.814 744.421h150.905l-85.333-592.842h-166.175l100.604 592.842zM2279.747 744.421h-150.905l87.579-592.842h163.93l-100.604 592.842zM2110.877 403.088h98.807v-89.825h-98.807v89.825zM2407.298 744.421h161.684v-592.842h-161.684v592.842zM2434.246 250.386h278.456v-98.807h-278.456v98.807z" horiz-adv-x="2713" />
</font>
</defs>
</svg>
